<mxfile host="app.diagrams.net" agent="Mozilla/5.0 (Windows NT 10.0; Win64; x64) AppleWebKit/537.36 (KHTML, like Gecko) Chrome/131.0.0.0 Safari/537.36 Edg/131.0.0.0" version="24.9.1">
  <diagram name="PÃ¡gina-1" id="O07iFOuHDq3so8C4X-uP">
    <mxGraphModel>
      <root>
        <mxCell id="0" />
        <mxCell id="1" parent="0" />
        <mxCell id="2" value="Security" style="whiteSpace=wrap;strokeWidth=2;" vertex="1" parent="1">
          <mxGeometry x="936" y="367" width="217" height="119" as="geometry" />
        </mxCell>
        <mxCell id="3" value="Databases" style="whiteSpace=wrap;strokeWidth=2;" vertex="1" parent="1">
          <mxGeometry x="936" y="506" width="217" height="218" as="geometry" />
        </mxCell>
        <mxCell id="4" value="Services" style="whiteSpace=wrap;strokeWidth=2;" vertex="1" parent="1">
          <mxGeometry x="703" y="8" width="451" height="119" as="geometry" />
        </mxCell>
        <mxCell id="5" value="Backend" style="whiteSpace=wrap;strokeWidth=2;" vertex="1" parent="1">
          <mxGeometry x="703" y="147" width="451" height="200" as="geometry" />
        </mxCell>
        <mxCell id="6" value="Frontend" style="whiteSpace=wrap;strokeWidth=2;" vertex="1" parent="1">
          <mxGeometry x="8" y="28" width="645" height="279" as="geometry" />
        </mxCell>
        <mxCell id="7" value="frontendStyle" style="whiteSpace=wrap;strokeWidth=2;" vertex="1" parent="1">
          <mxGeometry x="34" y="342" width="158" height="49" as="geometry" />
        </mxCell>
        <mxCell id="8" value="UserInterface" style="whiteSpace=wrap;strokeWidth=2;" vertex="1" parent="1">
          <mxGeometry x="34" y="143" width="158" height="49" as="geometry" />
        </mxCell>
        <mxCell id="9" value="FormValidation" style="whiteSpace=wrap;strokeWidth=2;" vertex="1" parent="1">
          <mxGeometry x="243" y="143" width="168" height="49" as="geometry" />
        </mxCell>
        <mxCell id="10" value="DataProcessing" style="whiteSpace=wrap;strokeWidth=2;" vertex="1" parent="1">
          <mxGeometry x="461" y="212" width="167" height="49" as="geometry" />
        </mxCell>
        <mxCell id="11" value="backendStyle" style="whiteSpace=wrap;strokeWidth=2;" vertex="1" parent="1">
          <mxGeometry x="35" y="441" width="155" height="49" as="geometry" />
        </mxCell>
        <mxCell id="12" value="Database" style="whiteSpace=wrap;strokeWidth=2;" vertex="1" parent="1">
          <mxGeometry x="744" y="183" width="126" height="49" as="geometry" />
        </mxCell>
        <mxCell id="13" value="API" style="whiteSpace=wrap;strokeWidth=2;" vertex="1" parent="1">
          <mxGeometry x="1003" y="203" width="84" height="49" as="geometry" />
        </mxCell>
        <mxCell id="14" value="servicesStyle" style="whiteSpace=wrap;strokeWidth=2;" vertex="1" parent="1">
          <mxGeometry x="37" y="540" width="153" height="49" as="geometry" />
        </mxCell>
        <mxCell id="15" value="Authorization" style="whiteSpace=wrap;strokeWidth=2;" vertex="1" parent="1">
          <mxGeometry x="728" y="43" width="158" height="49" as="geometry" />
        </mxCell>
        <mxCell id="16" value="Cache" style="whiteSpace=wrap;strokeWidth=2;" vertex="1" parent="1">
          <mxGeometry x="993" y="43" width="104" height="49" as="geometry" />
        </mxCell>
        <mxCell id="17" value="databaseStyle" style="whiteSpace=wrap;strokeWidth=2;" vertex="1" parent="1">
          <mxGeometry x="33" y="639" width="160" height="49" as="geometry" />
        </mxCell>
        <mxCell id="18" value="SQL" style="whiteSpace=wrap;strokeWidth=2;" vertex="1" parent="1">
          <mxGeometry x="1001" y="541" width="88" height="49" as="geometry" />
        </mxCell>
        <mxCell id="19" value="NoSQL" style="whiteSpace=wrap;strokeWidth=2;" vertex="1" parent="1">
          <mxGeometry x="992" y="640" width="106" height="49" as="geometry" />
        </mxCell>
        <mxCell id="20" value="securityStyle" style="whiteSpace=wrap;strokeWidth=2;" vertex="1" parent="1">
          <mxGeometry x="37" y="738" width="153" height="49" as="geometry" />
        </mxCell>
        <mxCell id="21" value="Authentication" style="whiteSpace=wrap;strokeWidth=2;" vertex="1" parent="1">
          <mxGeometry x="961" y="402" width="167" height="49" as="geometry" />
        </mxCell>
        <mxCell id="22" value="" style="curved=1;startArrow=none;endArrow=block;exitX=1;exitY=0.49;entryX=0;entryY=0.49;" edge="1" parent="1" source="8" target="9">
          <mxGeometry relative="1" as="geometry">
            <Array as="points" />
          </mxGeometry>
        </mxCell>
        <mxCell id="23" value="" style="curved=1;startArrow=none;endArrow=block;exitX=1;exitY=0.49;entryX=0.27;entryY=0.01;" edge="1" parent="1" source="9" target="10">
          <mxGeometry relative="1" as="geometry">
            <Array as="points">
              <mxPoint x="436" y="167" />
            </Array>
          </mxGeometry>
        </mxCell>
        <mxCell id="24" value="" style="curved=1;startArrow=none;endArrow=block;exitX=0;exitY=0.97;entryX=0.66;entryY=0.99;" edge="1" parent="1" source="10" target="8">
          <mxGeometry relative="1" as="geometry">
            <Array as="points">
              <mxPoint x="436" y="267" />
              <mxPoint x="218" y="267" />
            </Array>
          </mxGeometry>
        </mxCell>
        <mxCell id="25" value="" style="curved=1;startArrow=none;endArrow=block;exitX=1;exitY=0.04;entryX=0;entryY=0.49;" edge="1" parent="1" source="10" target="12">
          <mxGeometry relative="1" as="geometry">
            <Array as="points">
              <mxPoint x="653" y="207" />
            </Array>
          </mxGeometry>
        </mxCell>
        <mxCell id="26" value="" style="curved=1;startArrow=none;endArrow=block;exitX=1;exitY=0.49;entryX=0;entryY=0.33;" edge="1" parent="1" source="12" target="13">
          <mxGeometry relative="1" as="geometry">
            <Array as="points">
              <mxPoint x="936" y="207" />
            </Array>
          </mxGeometry>
        </mxCell>
        <mxCell id="27" value="" style="curved=1;startArrow=none;endArrow=block;exitX=0;exitY=0.8;entryX=1;entryY=0.97;" edge="1" parent="1" source="13" target="10">
          <mxGeometry relative="1" as="geometry">
            <Array as="points">
              <mxPoint x="936" y="267" />
              <mxPoint x="653" y="267" />
            </Array>
          </mxGeometry>
        </mxCell>
        <mxCell id="28" value="" style="curved=1;startArrow=none;endArrow=block;exitX=0.66;exitY=-0.01;entryX=0;entryY=0.5;" edge="1" parent="1" source="8" target="15">
          <mxGeometry relative="1" as="geometry">
            <Array as="points">
              <mxPoint x="218" y="68" />
            </Array>
          </mxGeometry>
        </mxCell>
        <mxCell id="29" value="" style="curved=1;startArrow=none;endArrow=block;exitX=1;exitY=0.04;entryX=0.33;entryY=-0.01;" edge="1" parent="1" source="15" target="13">
          <mxGeometry relative="1" as="geometry">
            <Array as="points">
              <mxPoint x="911" y="38" />
              <mxPoint x="936" y="38" />
            </Array>
          </mxGeometry>
        </mxCell>
        <mxCell id="30" value="" style="curved=1;startArrow=none;endArrow=block;exitX=1;exitY=0;entryX=0.24;entryY=1;" edge="1" parent="1" source="12" target="16">
          <mxGeometry relative="1" as="geometry">
            <Array as="points">
              <mxPoint x="911" y="167" />
              <mxPoint x="936" y="167" />
            </Array>
          </mxGeometry>
        </mxCell>
        <mxCell id="31" value="" style="curved=1;startArrow=none;endArrow=block;exitX=0.29;exitY=1;entryX=1;entryY=0.24;" edge="1" parent="1" source="16" target="12">
          <mxGeometry relative="1" as="geometry">
            <Array as="points">
              <mxPoint x="936" y="187" />
              <mxPoint x="911" y="187" />
            </Array>
          </mxGeometry>
        </mxCell>
        <mxCell id="32" value="" style="curved=1;startArrow=none;endArrow=block;exitX=0.76;exitY=0.99;entryX=0.39;entryY=-0.01;" edge="1" parent="1" source="12" target="18">
          <mxGeometry relative="1" as="geometry">
            <Array as="points">
              <mxPoint x="911" y="287" />
              <mxPoint x="936" y="287" />
            </Array>
          </mxGeometry>
        </mxCell>
        <mxCell id="33" value="" style="curved=1;startArrow=none;endArrow=block;exitX=0.71;exitY=0.99;entryX=0.43;entryY=-0.01;" edge="1" parent="1" source="12" target="19">
          <mxGeometry relative="1" as="geometry">
            <Array as="points">
              <mxPoint x="911" y="307" />
              <mxPoint x="936" y="307" />
            </Array>
          </mxGeometry>
        </mxCell>
        <mxCell id="34" value="" style="curved=1;startArrow=none;endArrow=block;exitX=0.43;exitY=-0.01;entryX=0.67;entryY=0.99;" edge="1" parent="1" source="19" target="12">
          <mxGeometry relative="1" as="geometry">
            <Array as="points">
              <mxPoint x="936" y="327" />
              <mxPoint x="911" y="327" />
            </Array>
          </mxGeometry>
        </mxCell>
        <mxCell id="35" value="" style="curved=1;startArrow=none;endArrow=block;exitX=1;exitY=0.5;entryX=0.46;entryY=-0.01;" edge="1" parent="1" source="15" target="21">
          <mxGeometry relative="1" as="geometry">
            <Array as="points">
              <mxPoint x="936" y="68" />
            </Array>
          </mxGeometry>
        </mxCell>
        <mxCell id="36" value="" style="curved=1;startArrow=none;endArrow=block;exitX=0.46;exitY=-0.01;entryX=1;entryY=0.96;" edge="1" parent="1" source="21" target="15">
          <mxGeometry relative="1" as="geometry">
            <Array as="points">
              <mxPoint x="936" y="97" />
              <mxPoint x="911" y="97" />
            </Array>
          </mxGeometry>
        </mxCell>
      </root>
    </mxGraphModel>
  </diagram>
</mxfile>
